<mxfile host="65bd71144e">
    <diagram id="eW81DRvd5MrSKYP45i16" name="Page-1">
        <mxGraphModel dx="1237" dy="677" grid="1" gridSize="10" guides="1" tooltips="1" connect="1" arrows="1" fold="1" page="1" pageScale="1" pageWidth="827" pageHeight="1169" math="0" shadow="0">
            <root>
                <mxCell id="0"/>
                <mxCell id="1" parent="0"/>
                <mxCell id="11" style="edgeStyle=none;html=1;exitX=0.5;exitY=1;exitDx=0;exitDy=0;entryX=0.5;entryY=0;entryDx=0;entryDy=0;" edge="1" parent="1" source="7" target="8">
                    <mxGeometry relative="1" as="geometry"/>
                </mxCell>
                <mxCell id="7" value="App" style="rounded=0;whiteSpace=wrap;html=1;" vertex="1" parent="1">
                    <mxGeometry x="80" y="30" width="210" height="90" as="geometry"/>
                </mxCell>
                <mxCell id="128" style="edgeStyle=none;html=1;exitX=1;exitY=0.25;exitDx=0;exitDy=0;" edge="1" parent="1" source="8">
                    <mxGeometry relative="1" as="geometry">
                        <mxPoint x="480" y="160" as="targetPoint"/>
                        <Array as="points">
                            <mxPoint x="480" y="175"/>
                        </Array>
                    </mxGeometry>
                </mxCell>
                <mxCell id="143" style="edgeStyle=none;html=1;exitX=0.5;exitY=1;exitDx=0;exitDy=0;entryX=1;entryY=0;entryDx=0;entryDy=0;" edge="1" parent="1" source="8" target="93">
                    <mxGeometry relative="1" as="geometry"/>
                </mxCell>
                <mxCell id="8" value="Grid" style="rounded=1;whiteSpace=wrap;html=1;" vertex="1" parent="1">
                    <mxGeometry x="125" y="160" width="120" height="60" as="geometry"/>
                </mxCell>
                <mxCell id="42" style="edgeStyle=none;html=1;exitX=0.5;exitY=1;exitDx=0;exitDy=0;entryX=0;entryY=0;entryDx=0;entryDy=0;" edge="1" parent="1" source="17" target="26">
                    <mxGeometry relative="1" as="geometry"/>
                </mxCell>
                <mxCell id="17" value="Row" style="rounded=1;whiteSpace=wrap;html=1;" vertex="1" parent="1">
                    <mxGeometry x="50" y="370" width="90" height="40" as="geometry"/>
                </mxCell>
                <mxCell id="43" style="edgeStyle=none;html=1;exitX=0.5;exitY=1;exitDx=0;exitDy=0;entryX=0;entryY=0;entryDx=0;entryDy=0;" edge="1" parent="1" source="18" target="30">
                    <mxGeometry relative="1" as="geometry"/>
                </mxCell>
                <mxCell id="145" style="edgeStyle=none;html=1;exitX=0.5;exitY=0;exitDx=0;exitDy=0;entryX=1;entryY=1;entryDx=0;entryDy=0;" edge="1" parent="1" source="18" target="91">
                    <mxGeometry relative="1" as="geometry"/>
                </mxCell>
                <mxCell id="18" value="Row" style="rounded=1;whiteSpace=wrap;html=1;" vertex="1" parent="1">
                    <mxGeometry x="140" y="370" width="90" height="40" as="geometry"/>
                </mxCell>
                <mxCell id="44" style="edgeStyle=none;html=1;exitX=0.5;exitY=1;exitDx=0;exitDy=0;entryX=0;entryY=0;entryDx=0;entryDy=0;" edge="1" parent="1" source="19" target="34">
                    <mxGeometry relative="1" as="geometry"/>
                </mxCell>
                <mxCell id="19" value="Row" style="rounded=1;whiteSpace=wrap;html=1;" vertex="1" parent="1">
                    <mxGeometry x="230" y="370" width="90" height="40" as="geometry"/>
                </mxCell>
                <mxCell id="25" value="Cell" style="rounded=1;whiteSpace=wrap;html=1;" vertex="1" parent="1">
                    <mxGeometry x="55" y="430" width="40" height="40" as="geometry"/>
                </mxCell>
                <mxCell id="26" value="Cell" style="rounded=1;whiteSpace=wrap;html=1;" vertex="1" parent="1">
                    <mxGeometry x="95" y="430" width="40" height="40" as="geometry"/>
                </mxCell>
                <mxCell id="27" value="Cell" style="rounded=1;whiteSpace=wrap;html=1;" vertex="1" parent="1">
                    <mxGeometry x="55" y="470" width="40" height="40" as="geometry"/>
                </mxCell>
                <mxCell id="28" value="Cell" style="rounded=1;whiteSpace=wrap;html=1;" vertex="1" parent="1">
                    <mxGeometry x="95" y="470" width="40" height="40" as="geometry"/>
                </mxCell>
                <mxCell id="29" value="Cell" style="rounded=1;whiteSpace=wrap;html=1;" vertex="1" parent="1">
                    <mxGeometry x="145" y="430" width="40" height="40" as="geometry"/>
                </mxCell>
                <mxCell id="30" value="Cell" style="rounded=1;whiteSpace=wrap;html=1;" vertex="1" parent="1">
                    <mxGeometry x="185" y="430" width="40" height="40" as="geometry"/>
                </mxCell>
                <mxCell id="31" value="Cell" style="rounded=1;whiteSpace=wrap;html=1;" vertex="1" parent="1">
                    <mxGeometry x="145" y="470" width="40" height="40" as="geometry"/>
                </mxCell>
                <mxCell id="32" value="Cell" style="rounded=1;whiteSpace=wrap;html=1;" vertex="1" parent="1">
                    <mxGeometry x="185" y="470" width="40" height="40" as="geometry"/>
                </mxCell>
                <mxCell id="33" value="Cell" style="rounded=1;whiteSpace=wrap;html=1;" vertex="1" parent="1">
                    <mxGeometry x="235" y="430" width="40" height="40" as="geometry"/>
                </mxCell>
                <mxCell id="34" value="Cell" style="rounded=1;whiteSpace=wrap;html=1;" vertex="1" parent="1">
                    <mxGeometry x="275" y="430" width="40" height="40" as="geometry"/>
                </mxCell>
                <mxCell id="35" value="Cell" style="rounded=1;whiteSpace=wrap;html=1;" vertex="1" parent="1">
                    <mxGeometry x="235" y="470" width="40" height="40" as="geometry"/>
                </mxCell>
                <mxCell id="36" value="Cell" style="rounded=1;whiteSpace=wrap;html=1;" vertex="1" parent="1">
                    <mxGeometry x="275" y="470" width="40" height="40" as="geometry"/>
                </mxCell>
                <mxCell id="118" value="States/Cached Data" style="swimlane;" vertex="1" parent="1">
                    <mxGeometry x="380" y="30" width="520" height="480" as="geometry"/>
                </mxCell>
                <mxCell id="86" value="" style="group" vertex="1" connectable="0" parent="118">
                    <mxGeometry x="200" y="310" width="130" height="40" as="geometry"/>
                </mxCell>
                <mxCell id="87" value="" style="rounded=0;whiteSpace=wrap;html=1;" vertex="1" parent="86">
                    <mxGeometry width="130" height="40" as="geometry"/>
                </mxCell>
                <mxCell id="88" value="Letters/Completed Grid" style="text;html=1;strokeColor=none;fillColor=none;align=center;verticalAlign=middle;whiteSpace=wrap;rounded=0;" vertex="1" parent="86">
                    <mxGeometry y="5" width="130" height="30" as="geometry"/>
                </mxCell>
                <mxCell id="115" value="" style="group" vertex="1" connectable="0" parent="118">
                    <mxGeometry x="200" y="370" width="130" height="40" as="geometry"/>
                </mxCell>
                <mxCell id="116" value="" style="rounded=0;whiteSpace=wrap;html=1;" vertex="1" parent="115">
                    <mxGeometry width="130" height="40" as="geometry"/>
                </mxCell>
                <mxCell id="117" value="Word Positions" style="text;html=1;strokeColor=none;fillColor=none;align=center;verticalAlign=middle;whiteSpace=wrap;rounded=0;" vertex="1" parent="115">
                    <mxGeometry y="5" width="130" height="30" as="geometry"/>
                </mxCell>
                <mxCell id="103" value="" style="group" vertex="1" connectable="0" parent="118">
                    <mxGeometry x="10" y="430" width="130" height="40" as="geometry"/>
                </mxCell>
                <mxCell id="104" value="" style="rounded=0;whiteSpace=wrap;html=1;" vertex="1" parent="103">
                    <mxGeometry width="130" height="40" as="geometry"/>
                </mxCell>
                <mxCell id="105" value="Loaded" style="text;html=1;strokeColor=none;fillColor=none;align=center;verticalAlign=middle;whiteSpace=wrap;rounded=0;" vertex="1" parent="103">
                    <mxGeometry y="5" width="130" height="30" as="geometry"/>
                </mxCell>
                <mxCell id="95" value="" style="group" vertex="1" connectable="0" parent="118">
                    <mxGeometry x="34" y="90" width="130" height="40" as="geometry"/>
                </mxCell>
                <mxCell id="96" value="" style="rounded=0;whiteSpace=wrap;html=1;" vertex="1" parent="95">
                    <mxGeometry width="130" height="40" as="geometry"/>
                </mxCell>
                <mxCell id="97" value="Grid Size (Row Count)" style="text;html=1;strokeColor=none;fillColor=none;align=center;verticalAlign=middle;whiteSpace=wrap;rounded=0;" vertex="1" parent="95">
                    <mxGeometry y="5" width="130" height="30" as="geometry"/>
                </mxCell>
                <mxCell id="98" value="" style="group" vertex="1" connectable="0" parent="118">
                    <mxGeometry x="34" y="40" width="130" height="40" as="geometry"/>
                </mxCell>
                <mxCell id="99" value="" style="rounded=0;whiteSpace=wrap;html=1;" vertex="1" parent="98">
                    <mxGeometry width="130" height="40" as="geometry"/>
                </mxCell>
                <mxCell id="100" value="Cell Count" style="text;html=1;strokeColor=none;fillColor=none;align=center;verticalAlign=middle;whiteSpace=wrap;rounded=0;" vertex="1" parent="98">
                    <mxGeometry y="5" width="130" height="30" as="geometry"/>
                </mxCell>
                <mxCell id="126" style="edgeStyle=none;html=1;exitX=0.5;exitY=1;exitDx=0;exitDy=0;entryX=1;entryY=0.5;entryDx=0;entryDy=0;" edge="1" parent="118" source="117" target="105">
                    <mxGeometry relative="1" as="geometry">
                        <Array as="points">
                            <mxPoint x="265" y="450"/>
                        </Array>
                    </mxGeometry>
                </mxCell>
                <mxCell id="71" value="" style="group" vertex="1" connectable="0" parent="118">
                    <mxGeometry x="362.5" y="40" width="130" height="40" as="geometry"/>
                </mxCell>
                <mxCell id="69" value="" style="rounded=0;whiteSpace=wrap;html=1;" vertex="1" parent="71">
                    <mxGeometry width="130" height="40" as="geometry"/>
                </mxCell>
                <mxCell id="70" value="Word Lists/Categories" style="text;html=1;strokeColor=none;fillColor=none;align=center;verticalAlign=middle;whiteSpace=wrap;rounded=0;" vertex="1" parent="71">
                    <mxGeometry y="5" width="130" height="30" as="geometry"/>
                </mxCell>
                <mxCell id="75" value="" style="group" vertex="1" connectable="0" parent="118">
                    <mxGeometry x="362.5" y="100" width="130" height="40" as="geometry"/>
                </mxCell>
                <mxCell id="76" value="" style="rounded=0;whiteSpace=wrap;html=1;" vertex="1" parent="75">
                    <mxGeometry width="130" height="40" as="geometry"/>
                </mxCell>
                <mxCell id="77" value="Word List" style="text;html=1;strokeColor=none;fillColor=none;align=center;verticalAlign=middle;whiteSpace=wrap;rounded=0;" vertex="1" parent="75">
                    <mxGeometry y="5" width="130" height="30" as="geometry"/>
                </mxCell>
                <mxCell id="78" value="" style="group" vertex="1" connectable="0" parent="118">
                    <mxGeometry x="362.5" y="160" width="130" height="40" as="geometry"/>
                </mxCell>
                <mxCell id="79" value="" style="rounded=0;whiteSpace=wrap;html=1;" vertex="1" parent="78">
                    <mxGeometry width="130" height="40" as="geometry"/>
                </mxCell>
                <mxCell id="80" value="Words to Add" style="text;html=1;strokeColor=none;fillColor=none;align=center;verticalAlign=middle;whiteSpace=wrap;rounded=0;" vertex="1" parent="78">
                    <mxGeometry y="5" width="130" height="30" as="geometry"/>
                </mxCell>
                <mxCell id="82" style="edgeStyle=none;html=1;exitX=0.5;exitY=1;exitDx=0;exitDy=0;entryX=0.5;entryY=0;entryDx=0;entryDy=0;" edge="1" parent="118" source="76" target="79">
                    <mxGeometry relative="1" as="geometry"/>
                </mxCell>
                <mxCell id="85" style="edgeStyle=none;html=1;exitX=0.5;exitY=1;exitDx=0;exitDy=0;" edge="1" parent="118" source="69">
                    <mxGeometry relative="1" as="geometry">
                        <mxPoint x="427.5" y="100" as="targetPoint"/>
                    </mxGeometry>
                </mxCell>
                <mxCell id="133" style="edgeStyle=none;html=1;exitX=0.5;exitY=1;exitDx=0;exitDy=0;entryX=0.5;entryY=0;entryDx=0;entryDy=0;" edge="1" parent="118" source="120" target="87">
                    <mxGeometry relative="1" as="geometry"/>
                </mxCell>
                <mxCell id="120" value="Generate Grid" style="label;whiteSpace=wrap;html=1;image=img/clipart/Gear_128x128.png" vertex="1" parent="118">
                    <mxGeometry x="187.5" y="230" width="155" height="60" as="geometry"/>
                </mxCell>
                <mxCell id="121" style="edgeStyle=none;html=1;" edge="1" parent="118" source="80">
                    <mxGeometry relative="1" as="geometry">
                        <mxPoint x="340" y="260" as="targetPoint"/>
                        <Array as="points">
                            <mxPoint x="428" y="260"/>
                        </Array>
                    </mxGeometry>
                </mxCell>
                <mxCell id="130" value="" style="edgeStyle=none;html=1;" edge="1" parent="118" source="88" target="117">
                    <mxGeometry relative="1" as="geometry"/>
                </mxCell>
                <mxCell id="131" style="edgeStyle=none;html=1;exitX=0.5;exitY=0;exitDx=0;exitDy=0;entryX=0.5;entryY=1;entryDx=0;entryDy=0;" edge="1" parent="118" source="97" target="99">
                    <mxGeometry relative="1" as="geometry"/>
                </mxCell>
                <mxCell id="132" style="edgeStyle=none;html=1;exitX=1;exitY=0.5;exitDx=0;exitDy=0;entryX=0;entryY=0.5;entryDx=0;entryDy=0;" edge="1" parent="118" source="100" target="70">
                    <mxGeometry relative="1" as="geometry"/>
                </mxCell>
                <mxCell id="112" value="" style="group" vertex="1" connectable="0" parent="118">
                    <mxGeometry x="200" y="160" width="130" height="40" as="geometry"/>
                </mxCell>
                <mxCell id="113" value="" style="rounded=0;whiteSpace=wrap;html=1;" vertex="1" parent="112">
                    <mxGeometry width="130" height="40" as="geometry"/>
                </mxCell>
                <mxCell id="114" value="Directions" style="text;html=1;strokeColor=none;fillColor=none;align=center;verticalAlign=middle;whiteSpace=wrap;rounded=0;" vertex="1" parent="112">
                    <mxGeometry y="5" width="130" height="30" as="geometry"/>
                </mxCell>
                <mxCell id="134" value="" style="endArrow=classic;startArrow=classic;html=1;entryX=0.5;entryY=1;entryDx=0;entryDy=0;exitX=0.5;exitY=0;exitDx=0;exitDy=0;" edge="1" parent="118" source="120" target="113">
                    <mxGeometry width="50" height="50" relative="1" as="geometry">
                        <mxPoint x="210" y="320" as="sourcePoint"/>
                        <mxPoint x="260" y="270" as="targetPoint"/>
                    </mxGeometry>
                </mxCell>
                <mxCell id="106" value="" style="group" vertex="1" connectable="0" parent="1">
                    <mxGeometry x="185" y="246" width="130" height="40" as="geometry"/>
                </mxCell>
                <mxCell id="107" value="" style="rounded=0;whiteSpace=wrap;html=1;" vertex="1" parent="106">
                    <mxGeometry width="130" height="40" as="geometry"/>
                </mxCell>
                <mxCell id="108" value="Selected Cells" style="text;html=1;strokeColor=none;fillColor=none;align=center;verticalAlign=middle;whiteSpace=wrap;rounded=0;" vertex="1" parent="106">
                    <mxGeometry y="5" width="130" height="30" as="geometry"/>
                </mxCell>
                <mxCell id="109" value="" style="group" vertex="1" connectable="0" parent="1">
                    <mxGeometry x="185" y="286" width="130" height="40" as="geometry"/>
                </mxCell>
                <mxCell id="110" value="" style="rounded=0;whiteSpace=wrap;html=1;" vertex="1" parent="109">
                    <mxGeometry width="130" height="40" as="geometry"/>
                </mxCell>
                <mxCell id="111" value="Completed Cells" style="text;html=1;strokeColor=none;fillColor=none;align=center;verticalAlign=middle;whiteSpace=wrap;rounded=0;" vertex="1" parent="109">
                    <mxGeometry y="5" width="130" height="30" as="geometry"/>
                </mxCell>
                <mxCell id="92" value="" style="group" vertex="1" connectable="0" parent="1">
                    <mxGeometry x="55" y="246" width="130" height="40" as="geometry"/>
                </mxCell>
                <mxCell id="93" value="" style="rounded=0;whiteSpace=wrap;html=1;" vertex="1" parent="92">
                    <mxGeometry width="130" height="40" as="geometry"/>
                </mxCell>
                <mxCell id="94" value="Words Remaining" style="text;html=1;strokeColor=none;fillColor=none;align=center;verticalAlign=middle;whiteSpace=wrap;rounded=0;" vertex="1" parent="92">
                    <mxGeometry y="5" width="130" height="30" as="geometry"/>
                </mxCell>
                <mxCell id="89" value="" style="group" vertex="1" connectable="0" parent="1">
                    <mxGeometry x="55" y="286" width="130" height="40" as="geometry"/>
                </mxCell>
                <mxCell id="90" value="" style="rounded=0;whiteSpace=wrap;html=1;" vertex="1" parent="89">
                    <mxGeometry width="130" height="40" as="geometry"/>
                </mxCell>
                <mxCell id="91" value="Words Found" style="text;html=1;strokeColor=none;fillColor=none;align=center;verticalAlign=middle;whiteSpace=wrap;rounded=0;" vertex="1" parent="89">
                    <mxGeometry y="5" width="130" height="30" as="geometry"/>
                </mxCell>
                <mxCell id="127" style="edgeStyle=none;html=1;exitX=0;exitY=0.5;exitDx=0;exitDy=0;entryX=1;entryY=0.75;entryDx=0;entryDy=0;" edge="1" parent="1" source="105" target="8">
                    <mxGeometry relative="1" as="geometry">
                        <Array as="points">
                            <mxPoint x="360" y="480"/>
                            <mxPoint x="360" y="205"/>
                        </Array>
                    </mxGeometry>
                </mxCell>
                <mxCell id="144" style="edgeStyle=none;html=1;exitX=1;exitY=1;exitDx=0;exitDy=0;entryX=0.5;entryY=0;entryDx=0;entryDy=0;" edge="1" parent="1" source="90" target="18">
                    <mxGeometry relative="1" as="geometry"/>
                </mxCell>
                <mxCell id="146" style="edgeStyle=none;html=1;exitX=1;exitY=0;exitDx=0;exitDy=0;entryX=0.5;entryY=1;entryDx=0;entryDy=0;" edge="1" parent="1" source="93" target="8">
                    <mxGeometry relative="1" as="geometry"/>
                </mxCell>
            </root>
        </mxGraphModel>
    </diagram>
</mxfile>